<svg width="67" height="20" viewBox="0 0 67 20" fill="none" xmlns="http://www.w3.org/2000/svg">
<path d="M10.708 10.3775H12.3789V9.69147C12.3789 8.36547 11.7899 7.83847 10.6789 7.83847C9.86867 7.86113 9.07195 8.05147 8.33895 8.39748L7.93892 7.45547C8.78391 6.97296 9.73612 6.7093 10.7089 6.68848C12.6989 6.68848 13.6699 7.64747 13.6699 9.75547V15.2495H12.6829L12.5239 14.3235C11.7489 14.9612 10.7885 15.3309 9.78597 15.3775C9.46503 15.4053 9.1419 15.3621 8.83956 15.251C8.53721 15.1398 8.26302 14.9634 8.03658 14.7342C7.81013 14.5051 7.63699 14.2289 7.52938 13.9253C7.42176 13.6217 7.38228 13.2981 7.4139 12.9775C7.4139 11.2685 8.55995 10.3775 10.7139 10.3775M12.385 13.3325V11.3225H10.885C9.37197 11.3225 8.68489 11.8335 8.68489 12.9225C8.66209 13.1052 8.68069 13.2907 8.73934 13.4652C8.79799 13.6398 8.89525 13.7989 9.02376 13.9307C9.15227 14.0626 9.3088 14.1639 9.48177 14.227C9.65474 14.2902 9.83966 14.3135 10.0229 14.2955C10.8949 14.2575 11.727 13.919 12.3779 13.3375" fill="#1E1E1E"/>
<path d="M17.3966 15.2539H16.0596V3.30293L17.3966 3.00293V15.2539ZM21.2656 6.59793L22.3156 7.38094L19.5616 10.8309L22.7446 14.6479L21.6946 15.4779L17.9856 10.8949L21.2656 6.59793Z" fill="#1E1E1E"/>
<path d="M26.7714 10.3775H28.4434V9.69147C28.4434 8.36547 27.8545 7.83847 26.7435 7.83847C25.9332 7.86099 25.1364 8.05134 24.4034 8.39748L24.0034 7.45547C24.8484 6.97296 25.8006 6.7093 26.7734 6.68848C28.7634 6.68848 29.7345 7.64747 29.7345 9.75547V15.2495H28.7474L28.5885 14.3235C27.8135 14.9611 26.8529 15.3309 25.8504 15.3775C25.5295 15.4055 25.2062 15.3624 24.9038 15.2513C24.6013 15.1402 24.3272 14.9638 24.1007 14.7346C23.8742 14.5055 23.701 14.2292 23.5935 13.9255C23.4859 13.6218 23.4467 13.2981 23.4785 12.9775C23.4785 11.2685 24.6254 10.3775 26.7784 10.3775M28.4504 13.3325V11.3225H26.9504C25.4384 11.3225 24.7505 11.8335 24.7505 12.9225C24.7277 13.1051 24.7463 13.2905 24.8049 13.465C24.8635 13.6394 24.9606 13.7985 25.089 13.9303C25.2173 14.0622 25.3738 14.1635 25.5466 14.2267C25.7194 14.2899 25.9043 14.3134 26.0875 14.2955C26.9598 14.2576 27.7922 13.9191 28.4434 13.3375" fill="#1E1E1E"/>
<path d="M39.0927 11.0645C39.0927 13.8595 37.7076 15.4085 35.3676 15.4085C33.0436 15.4085 31.6426 13.8595 31.6426 11.0645C31.6426 8.25348 33.0596 6.68848 35.3676 6.68848C37.6916 6.68848 39.0927 8.25348 39.0927 11.0645ZM33.0276 11.0645C33.0276 13.1885 33.8866 14.3065 35.3676 14.3065C36.8486 14.3065 37.7076 13.1885 37.7076 11.0645C37.7076 8.94048 36.8486 7.79047 35.3676 7.79047C33.8866 7.79047 33.0276 8.94048 33.0276 11.0645Z" fill="#1E1E1E"/>
<path d="M43.2141 15.309V18.487H41.0801V6.83298H42.5922L42.8472 7.53298C43.1594 7.21631 43.5339 6.96771 43.9469 6.80283C44.3599 6.63796 44.8026 6.56038 45.2471 6.57498C47.4471 6.57498 48.4312 8.21998 48.4312 10.888C48.4312 13.683 46.8401 15.488 44.5631 15.488C44.106 15.4958 43.6502 15.4368 43.2101 15.313M43.2101 8.60498V13.828C43.463 13.8646 43.7186 13.8807 43.9741 13.876C45.6611 13.876 46.2661 12.71 46.2661 10.89C46.2661 9.32398 45.9001 8.30198 44.5151 8.30198C44.064 8.31242 43.6196 8.41449 43.2091 8.60198" fill="#1E1E1E"/>
<path d="M52.9388 10.1232H54.2758V9.83618C54.2758 8.91018 53.9898 8.38218 52.7318 8.38218C51.9434 8.3753 51.166 8.56758 50.4717 8.94118L49.8828 7.47218C50.8096 6.8844 51.8853 6.57386 52.9829 6.57717C55.1319 6.57717 56.2628 7.63118 56.2628 9.81918V15.2492H54.7628L54.5237 14.5302C53.8068 15.1143 52.9172 15.4454 51.9929 15.4722C51.6416 15.5028 51.2879 15.4543 50.9578 15.3304C50.6277 15.2064 50.3296 15.0101 50.0853 14.7558C49.841 14.5016 49.6567 14.1958 49.5461 13.861C49.4354 13.5263 49.4011 13.1709 49.4457 12.8212C49.4457 11.0482 50.6558 10.1212 52.9318 10.1212M54.2689 13.1392V11.4962H53.1227C51.9767 11.4962 51.3718 11.9592 51.3718 12.8062C51.3604 12.9451 51.3803 13.0848 51.4298 13.2151C51.4792 13.3454 51.5571 13.463 51.6578 13.5594C51.7585 13.6558 51.8794 13.7285 52.0118 13.7722C52.1441 13.8159 52.2845 13.8296 52.4228 13.8122C53.0957 13.8005 53.7455 13.5644 54.2689 13.1412" fill="#1E1E1E"/>
<path d="M62.5234 14.3707C62.0209 16.1597 60.9404 17.7322 59.4504 18.8427L58.1294 17.6287C58.9208 16.9836 59.5802 16.1918 60.0714 15.2967L57.1104 7.1037L59.2274 6.52869L61.1375 13.1567L63.0314 6.5127L65.1313 7.1197L62.5234 14.3707Z" fill="#1E1E1E"/>
<path d="M1.92603 10.89L5.63501 15.473L6.68591 14.642L3.50195 10.826L6.25598 7.376L5.20496 6.593L1.92603 10.89ZM1.33691 3L0 3.3V15.254H1.33691V3Z" fill="#1E1E1E"/>
</svg>
